<svg width="310" height="309" viewBox="0 0 310 309" fill="none" xmlns="http://www.w3.org/2000/svg">
<path d="M123.813 300.061C105.832 296.189 89.043 289.122 74.0703 279.484C65.7311 274.116 63.6757 272.568 62.132 269.412C61.6363 268.399 61.1618 266.741 60.9525 264.78C60.7432 262.819 60.8572 261.1 61.1276 260.006C61.9507 256.677 64.1918 254.118 72.8905 245.446L148.844 169.727V276.803C148.844 289.083 148.614 292.472 146.834 295.407C146.247 296.374 145.105 297.673 143.562 298.914C142.02 300.155 140.503 300.995 139.427 301.364C136.082 302.511 133.519 302.151 123.813 300.061Z" fill="#FB8100" stroke="white" stroke-width="14"/>
<path d="M8.93932 186.27C12.8112 204.25 19.8775 221.04 29.5159 236.012C34.8841 244.352 36.4317 246.407 39.5878 247.951C40.6013 248.446 42.259 248.921 44.2198 249.13C46.1806 249.34 47.9002 249.225 48.9939 248.955C52.3233 248.132 54.882 245.891 63.5538 237.192L139.273 161.238H32.1968C19.9173 161.238 16.5276 161.469 13.5928 163.249C12.6265 163.835 11.3275 164.978 10.0862 166.52C8.8454 168.063 8.00487 169.579 7.63583 170.656C6.48906 174.001 6.84923 176.564 8.93932 186.27Z" fill="#FB8100" stroke="white" stroke-width="14"/>
<path d="M8.9393 123.207C12.8112 105.226 19.8775 88.4369 29.5159 73.4642C34.8841 65.1249 36.4317 63.0695 39.5878 61.5259C40.6013 61.0302 42.259 60.5557 44.2198 60.3464C46.1806 60.1371 47.9002 60.2511 48.9939 60.5215C52.3233 61.3445 54.882 63.5856 63.5538 72.2844L139.273 148.238H32.1968C19.9173 148.238 16.5276 148.008 13.5928 146.227C12.6265 145.641 11.3275 144.499 10.0862 142.956C8.8454 141.414 8.00487 139.897 7.63583 138.821C6.48906 135.476 6.84921 132.913 8.9393 123.207Z" fill="#FB8100" stroke="white" stroke-width="14"/>
<path d="M123.813 8.93932C105.832 12.8112 89.043 19.8775 74.0703 29.5159C65.7311 34.8841 63.6757 36.4317 62.132 39.5878C61.6363 40.6013 61.1618 42.259 60.9525 44.2198C60.7432 46.1806 60.8572 47.9002 61.1276 48.9939C61.9507 52.3233 64.1918 54.882 72.8905 63.5538L148.844 139.273V32.1968C148.844 19.9173 148.614 16.5276 146.834 13.5928C146.247 12.6265 145.105 11.3275 143.562 10.0862C142.02 8.8454 140.503 8.00487 139.427 7.63583C136.082 6.48906 133.519 6.84923 123.813 8.93932Z" fill="#FB8100" stroke="white" stroke-width="14"/>
<path d="M186.187 300.061C204.168 296.189 220.957 289.122 235.93 279.484C244.269 274.116 246.324 272.568 247.868 269.412C248.364 268.399 248.838 266.741 249.047 264.78C249.257 262.819 249.143 261.1 248.872 260.006C248.049 256.677 245.808 254.118 237.109 245.446L161.156 169.727V276.803C161.156 289.083 161.386 292.472 163.166 295.407C163.753 296.374 164.895 297.673 166.438 298.914C167.98 300.155 169.497 300.995 170.573 301.364C173.918 302.511 176.481 302.151 186.187 300.061Z" fill="white" stroke="white" stroke-width="14"/>
<path d="M301.061 186.27C297.189 204.25 290.122 221.04 280.484 236.012C275.116 244.352 273.568 246.407 270.412 247.951C269.399 248.446 267.741 248.921 265.78 249.13C263.819 249.34 262.1 249.225 261.006 248.955C257.677 248.132 255.118 245.891 246.446 237.192L170.727 161.238H277.803C290.083 161.238 293.472 161.469 296.407 163.249C297.373 163.835 298.673 164.978 299.914 166.52C301.155 168.063 301.995 169.579 302.364 170.656C303.511 174.001 303.151 176.564 301.061 186.27Z" fill="white" stroke="white" stroke-width="14"/>
<path d="M301.061 123.207C297.189 105.226 290.122 88.4369 280.484 73.4642C275.116 65.1249 273.568 63.0695 270.412 61.5259C269.399 61.0302 267.741 60.5557 265.78 60.3464C263.819 60.1371 262.1 60.2511 261.006 60.5215C257.677 61.3445 255.118 63.5856 246.446 72.2844L170.727 148.238H277.803C290.083 148.238 293.472 148.008 296.407 146.227C297.373 145.641 298.673 144.499 299.914 142.956C301.155 141.414 301.995 139.897 302.364 138.821C303.511 135.476 303.151 132.913 301.061 123.207Z" fill="white" stroke="white" stroke-width="14"/>
<path d="M186.187 8.93932C204.168 12.8112 220.957 19.8775 235.93 29.5159C244.269 34.8841 246.324 36.4317 247.868 39.5878C248.364 40.6013 248.838 42.259 249.047 44.2198C249.257 46.1806 249.143 47.9002 248.872 48.9939C248.049 52.3233 245.808 54.882 237.109 63.5538L161.156 139.273V32.1968C161.156 19.9173 161.386 16.5276 163.166 13.5928C163.753 12.6265 164.895 11.3275 166.438 10.0862C167.98 8.8454 169.497 8.00487 170.573 7.63583C173.918 6.48906 176.481 6.84923 186.187 8.93932Z" fill="white" stroke="white" stroke-width="14"/>
<path d="M211.414 103.075C197 109.947 185.557 116.745 177.086 123.469C168.489 130.341 164.126 140.202 164 153.051C164.126 165.9 168.425 175.76 176.897 182.633C185.494 189.356 197 196.154 211.414 203.027L245.552 219.611C246.943 220.358 248.46 220.806 250.103 220.955C253.644 221.254 256.678 220.059 259.207 217.369C261.736 214.531 263 210.945 263 206.612C263 201.682 262.115 198.096 260.345 195.855C258.701 193.465 256.552 191.522 253.897 190.028L224.31 177.254C219.126 174.864 214.195 172.548 209.517 170.307C204.966 167.917 200.793 165.227 197 162.239C193.207 159.4 191.184 156.338 190.931 153.051C191.184 149.614 193.207 146.552 197 143.862C200.793 140.874 204.966 138.26 209.517 136.019C214.195 133.628 219.126 131.238 224.31 128.847L250.862 116.97C253.517 115.475 255.667 113.608 257.31 111.367C259.08 108.976 259.966 105.316 259.966 100.386C259.966 96.0528 258.701 92.5418 256.172 89.8525C253.644 87.0138 250.609 85.7439 247.069 86.0427C245.425 86.1921 243.908 86.6403 242.517 87.3874L211.414 103.075Z" fill="#FB8100"/>
</svg>
