<svg width="310" height="307" viewBox="0 0 310 307" fill="none" xmlns="http://www.w3.org/2000/svg">
<mask id="path-1-inside-1" fill="white">
<path d="M67.9484 238.489C59.8034 246.609 55.7308 250.669 54.3322 256.326C53.3 260.501 53.9535 266.623 55.8439 270.488C58.4055 275.725 62.3641 278.273 70.2814 283.37C85.9479 293.455 103.519 300.851 122.339 304.904C131.558 306.889 136.168 307.882 141.697 305.986C145.778 304.587 150.585 300.719 152.818 297.038C155.844 292.05 155.844 286.301 155.844 274.803V151.119C155.844 151.053 155.791 151 155.725 151C155.675 151 155.498 151.06 155.533 151.096C155.555 151.117 155.555 151.153 155.533 151.175L67.9484 238.489Z"/>
</mask>
<path d="M67.9484 238.489C59.8034 246.609 55.7308 250.669 54.3322 256.326C53.3 260.501 53.9535 266.623 55.8439 270.488C58.4055 275.725 62.3641 278.273 70.2814 283.37C85.9479 293.455 103.519 300.851 122.339 304.904C131.558 306.889 136.168 307.882 141.697 305.986C145.778 304.587 150.585 300.719 152.818 297.038C155.844 292.05 155.844 286.301 155.844 274.803V151.119C155.844 151.053 155.791 151 155.725 151C155.675 151 155.498 151.06 155.533 151.096C155.555 151.117 155.555 151.153 155.533 151.175L67.9484 238.489Z" fill="white"/>
<path d="M155.533 151.096L145.649 161.01L155.533 151.096ZM155.533 151.175L145.649 141.26L155.533 151.175ZM155.725 151V137V151ZM70.2814 283.37L77.8593 271.598L70.2814 283.37ZM55.8439 270.488L68.4202 264.337L55.8439 270.488ZM67.9484 238.489L77.8326 248.404L67.9484 238.489ZM54.3322 256.326L67.923 259.686L54.3322 256.326ZM122.339 304.904L125.286 291.218L122.339 304.904ZM141.697 305.986L146.237 319.229L141.697 305.986ZM152.818 297.038L164.787 304.3L152.818 297.038ZM125.286 291.218C108.145 287.526 92.1381 280.79 77.8593 271.598L62.7035 295.142C79.7578 306.12 98.8937 314.176 119.392 318.59L125.286 291.218ZM141.844 151.119V274.803H169.844V151.119H141.844ZM145.649 141.26L58.0643 228.574L77.8326 248.404L165.418 161.089L145.649 141.26ZM145.649 161.01C140.184 155.561 140.183 146.709 145.649 141.26L165.418 161.089C170.927 155.597 170.927 146.673 165.418 141.181L145.649 161.01ZM155.725 137C153.766 137 152.252 137.432 152.039 137.489C151.454 137.646 150.817 137.856 150.154 138.136C149.809 138.282 148.156 138.963 146.453 140.417C145.759 141.009 143.339 143.133 142.16 146.926C141.484 149.101 141.234 151.807 141.999 154.683C142.75 157.512 144.243 159.608 145.649 161.01L165.418 141.181C166.82 142.579 168.31 144.67 169.06 147.494C169.823 150.365 169.573 153.066 168.898 155.237C167.723 159.02 165.311 161.133 164.63 161.714C162.952 163.147 161.34 163.807 161.04 163.933C160.423 164.193 159.839 164.386 159.299 164.531C159.132 164.576 157.659 165 155.725 165V137ZM169.844 151.119C169.844 143.28 163.482 137 155.725 137V165C148.1 165 141.844 158.826 141.844 151.119H169.844ZM77.8593 271.598C73.6321 268.877 71.5231 267.49 70.0514 266.255C68.9899 265.365 68.7025 264.914 68.4202 264.337L43.2675 276.639C47.8652 286.039 55.6303 290.589 62.7035 295.142L77.8593 271.598ZM58.0643 228.574C51.0265 235.59 43.2911 242.652 40.7413 252.966L67.923 259.686C67.9812 259.451 68.117 258.842 69.501 257.128C71.1299 255.112 73.5525 252.67 77.8326 248.404L58.0643 228.574ZM68.4202 264.337C68.4301 264.357 68.3298 264.147 68.2048 263.671C68.0847 263.215 67.9787 262.653 67.913 262.037C67.8472 261.421 67.8323 260.85 67.8533 260.379C67.8751 259.888 67.9287 259.663 67.923 259.686L40.7413 252.966C39.7338 257.042 39.6779 261.325 40.0711 265.009C40.4645 268.694 41.4233 272.868 43.2675 276.639L68.4202 264.337ZM119.392 318.59C127.636 320.365 136.339 322.623 146.237 319.229L137.157 292.743C136.534 292.956 135.999 293.073 134.609 292.952C132.687 292.786 130.207 292.277 125.286 291.218L119.392 318.59ZM141.844 274.803C141.844 280.846 141.826 284.282 141.547 286.857C141.311 289.042 140.976 289.567 140.849 289.776L164.787 304.3C170.305 295.206 169.844 284.739 169.844 274.803H141.844ZM146.237 319.229C150.205 317.869 153.838 315.6 156.726 313.276C159.614 310.952 162.61 307.889 164.787 304.3L140.849 289.776C140.86 289.758 140.736 289.957 140.401 290.322C140.079 290.673 139.661 291.068 139.174 291.46C138.688 291.851 138.211 292.176 137.798 292.417C137.368 292.667 137.142 292.747 137.157 292.743L146.237 319.229Z" fill="white" mask="url(#path-1-inside-1)"/>
<path d="M139.273 161.238H32.1968C19.9173 161.238 16.5276 161.469 13.5928 163.249C12.6265 163.835 11.3275 164.978 10.0862 166.52C8.84538 168.063 8.00487 169.579 7.63583 170.656C6.48906 174.001 6.84923 176.564 8.93932 186.27C12.8112 204.25 19.8775 221.04 29.5159 236.012C34.8841 244.352 36.4317 246.407 39.5878 247.951C40.6013 248.446 42.259 248.921 44.2198 249.13C46.1807 249.339 47.9002 249.225 48.9939 248.955C52.3233 248.132 54.882 245.891 63.5538 237.192L139.273 161.238Z" fill="white" stroke="white" stroke-width="14"/>
<mask id="path-4-inside-2" fill="white">
<path d="M68.5112 67.3423C60.3914 59.1972 56.3314 55.1246 50.6738 53.726C46.4987 52.6939 40.3773 53.3473 36.5122 55.2377C31.2748 57.7993 28.7265 61.758 23.63 69.6752C13.545 85.3418 6.14879 102.913 2.09618 121.733C0.110992 130.952 -0.881592 135.561 1.01419 141.091C2.41318 145.171 6.28099 149.979 9.96181 152.212C14.9497 155.238 20.6987 155.238 32.1968 155.238H155.881C155.947 155.238 156 155.185 156 155.119C156 155.069 155.94 154.892 155.904 154.927C155.883 154.949 155.847 154.949 155.825 154.927L68.5112 67.3423Z"/>
</mask>
<path d="M68.5112 67.3423C60.3914 59.1972 56.3314 55.1246 50.6738 53.726C46.4987 52.6939 40.3773 53.3473 36.5122 55.2377C31.2748 57.7993 28.7265 61.758 23.63 69.6752C13.545 85.3418 6.14879 102.913 2.09618 121.733C0.110992 130.952 -0.881592 135.561 1.01419 141.091C2.41318 145.171 6.28099 149.979 9.96181 152.212C14.9497 155.238 20.6987 155.238 32.1968 155.238H155.881C155.947 155.238 156 155.185 156 155.119C156 155.069 155.94 154.892 155.904 154.927C155.883 154.949 155.847 154.949 155.825 154.927L68.5112 67.3423Z" fill="white"/>
<path d="M155.904 154.927L145.99 145.043L155.904 154.927ZM155.825 154.927L165.74 145.043L155.825 154.927ZM156 155.119H170H156ZM23.63 69.6752L35.4018 77.2531L23.63 69.6752ZM36.5122 55.2377L42.6633 67.814L36.5122 55.2377ZM68.5112 67.3423L58.5964 77.2264L68.5112 67.3423ZM50.6738 53.726L47.314 67.3169L50.6738 53.726ZM2.09618 121.733L15.7824 124.68L2.09618 121.733ZM1.01419 141.091L-12.2291 145.631L1.01419 141.091ZM9.96181 152.212L2.69975 164.181L9.96181 152.212ZM15.7824 124.68C19.4736 107.539 26.2101 91.5319 35.4018 77.2531L11.8581 62.0974C0.879852 79.1516 -7.17603 98.2876 -11.5901 118.786L15.7824 124.68ZM155.881 141.238H32.1968V169.238H155.881V141.238ZM165.74 145.043L78.4261 57.4581L58.5964 77.2264L145.911 164.811L165.74 145.043ZM145.99 145.043C151.439 139.577 160.291 139.577 165.74 145.043L145.911 164.811C151.403 170.321 160.327 170.321 165.819 164.812L145.99 145.043ZM170 155.119C170 153.16 169.568 151.646 169.511 151.433C169.354 150.848 169.144 150.211 168.864 149.548C168.718 149.202 168.037 147.55 166.583 145.846C165.991 145.153 163.867 142.733 160.074 141.554C157.899 140.878 155.193 140.628 152.317 141.392C149.488 142.144 147.392 143.636 145.99 145.043L165.819 164.812C164.421 166.214 162.33 167.703 159.506 168.454C156.635 169.217 153.934 168.967 151.763 168.292C147.98 167.116 145.867 164.705 145.286 164.024C143.853 162.346 143.193 160.734 143.067 160.434C142.807 159.817 142.614 159.232 142.469 158.693C142.424 158.526 142 157.053 142 155.119H170ZM155.881 169.238C163.72 169.238 170 162.876 170 155.119H142C142 147.494 148.174 141.238 155.881 141.238V169.238ZM35.4018 77.2531C38.123 73.0259 39.51 70.9169 40.7445 69.4452C41.6349 68.3837 42.0861 68.0963 42.6633 67.814L30.3611 42.6614C20.9609 47.259 16.4114 55.0241 11.8581 62.0974L35.4018 77.2531ZM78.4261 57.4581C71.4101 50.4204 64.3477 42.6849 54.0337 40.1352L47.314 67.3169C47.5491 67.375 48.1585 67.5108 49.8717 68.8948C51.8882 70.5238 54.3296 72.9464 58.5964 77.2264L78.4261 57.4581ZM42.6633 67.814C42.6432 67.8239 42.8531 67.7236 43.3287 67.5986C43.7853 67.4785 44.347 67.3725 44.9628 67.3068C45.5785 67.2411 46.1497 67.2261 46.6209 67.2471C47.1117 67.2689 47.337 67.3226 47.314 67.3169L54.0337 40.1352C49.9583 39.1277 45.6751 39.0717 41.9908 39.465C38.3061 39.8583 34.1318 40.8172 30.3611 42.6614L42.6633 67.814ZM-11.5901 118.786C-13.3654 127.03 -15.6229 135.732 -12.2291 145.631L14.2575 136.55C14.0439 135.927 13.9274 135.392 14.0477 134.003C14.214 132.081 14.7228 129.601 15.7824 124.68L-11.5901 118.786ZM32.1968 141.238C26.1541 141.238 22.7179 141.22 20.1432 140.941C17.958 140.705 17.4326 140.369 17.2238 140.243L2.69975 164.181C11.7937 169.699 22.2614 169.238 32.1968 169.238V141.238ZM-12.2291 145.631C-10.8687 149.599 -8.59962 153.232 -6.27553 156.12C-3.95226 159.008 -0.888855 162.004 2.69975 164.181L17.2238 140.243C17.2422 140.254 17.0426 140.13 16.6776 139.795C16.3273 139.473 15.9315 139.055 15.5402 138.568C15.1488 138.082 14.8239 137.605 14.5834 137.191C14.333 136.761 14.2525 136.536 14.2575 136.55L-12.2291 145.631Z" fill="white" mask="url(#path-4-inside-2)"/>
<path d="M148.844 139.273V32.1968C148.844 19.9173 148.614 16.5276 146.834 13.5928C146.247 12.6265 145.105 11.3275 143.562 10.0862C142.02 8.84538 140.503 8.00487 139.427 7.63583C136.082 6.48906 133.519 6.84923 123.813 8.93932C105.832 12.8112 89.043 19.8775 74.0703 29.5159C65.7311 34.8841 63.6757 36.4317 62.132 39.5878C61.6363 40.6013 61.1618 42.259 60.9525 44.2198C60.7432 46.1807 60.8572 47.9002 61.1276 48.9939C61.9507 52.3233 64.1918 54.882 72.8905 63.5538L148.844 139.273Z" fill="white" stroke="white" stroke-width="14"/>
<path d="M186.187 298.061C204.168 294.189 220.957 287.122 235.93 277.484C244.269 272.116 246.324 270.568 247.868 267.412C248.364 266.399 248.838 264.741 249.047 262.78C249.257 260.819 249.143 259.1 248.872 258.006C248.049 254.677 245.808 252.118 237.109 243.446L161.156 167.727V274.803C161.156 287.083 161.386 290.472 163.166 293.407C163.753 294.373 164.895 295.673 166.438 296.914C167.98 298.155 169.497 298.995 170.573 299.364C173.918 300.511 176.481 300.151 186.187 298.061Z" fill="#FB8100" stroke="#FB8100" stroke-width="14"/>
<path d="M301.061 186.27C297.189 204.25 290.122 221.04 280.484 236.012C275.116 244.352 273.568 246.407 270.412 247.951C269.399 248.446 267.741 248.921 265.78 249.13C263.819 249.339 262.1 249.225 261.006 248.955C257.677 248.132 255.118 245.891 246.446 237.192L170.727 161.238H277.803C290.083 161.238 293.472 161.469 296.407 163.249C297.373 163.835 298.673 164.978 299.914 166.52C301.155 168.063 301.995 169.579 302.364 170.656C303.511 174.001 303.151 176.564 301.061 186.27Z" fill="#FB8100" stroke="#FB8100" stroke-width="14"/>
<path d="M301.061 123.207C297.189 105.226 290.122 88.4368 280.484 73.4642C275.116 65.1249 273.568 63.0695 270.412 61.5259C269.399 61.0302 267.741 60.5557 265.78 60.3464C263.819 60.137 262.1 60.2511 261.006 60.5214C257.677 61.3445 255.118 63.5856 246.446 72.2843L170.727 148.238H277.803C290.083 148.238 293.472 148.008 296.407 146.227C297.373 145.641 298.673 144.499 299.914 142.956C301.155 141.414 301.995 139.897 302.364 138.821C303.511 135.476 303.151 132.913 301.061 123.207Z" fill="#FB8100" stroke="#FB8100" stroke-width="14"/>
<path d="M186.187 8.93932C204.168 12.8112 220.957 19.8775 235.93 29.5159C244.269 34.8841 246.324 36.4317 247.868 39.5878C248.364 40.6013 248.838 42.259 249.047 44.2198C249.257 46.1806 249.143 47.9002 248.872 48.9939C248.049 52.3233 245.808 54.882 237.109 63.5538L161.156 139.273V32.1968C161.156 19.9173 161.386 16.5276 163.166 13.5928C163.753 12.6265 164.895 11.3275 166.438 10.0862C167.98 8.8454 169.497 8.00487 170.573 7.63583C173.918 6.48906 176.481 6.84923 186.187 8.93932Z" fill="#FB8100" stroke="#FB8100" stroke-width="14"/>
<path d="M219.414 102.075C205 108.947 193.557 115.745 185.086 122.469C176.489 129.341 172.126 139.202 172 152.051C172.126 164.9 176.425 174.76 184.897 181.633C193.494 188.356 205 195.154 219.414 202.027L253.552 218.611C254.943 219.358 256.46 219.806 258.103 219.955C261.644 220.254 264.678 219.059 267.207 216.369C269.736 213.531 271 209.945 271 205.612C271 200.682 270.115 197.096 268.345 194.855C266.701 192.465 264.552 190.522 261.897 189.028L232.31 176.254C227.126 173.864 222.195 171.548 217.517 169.307C212.966 166.916 208.793 164.227 205 161.239C201.207 158.4 199.184 155.338 198.931 152.051C199.184 148.614 201.207 145.552 205 142.862C208.793 139.874 212.966 137.26 217.517 135.019C222.195 132.628 227.126 130.238 232.31 127.847L258.862 115.969C261.517 114.475 263.667 112.608 265.31 110.367C267.08 107.976 267.966 104.316 267.966 99.3855C267.966 95.0528 266.701 91.5418 264.172 88.8525C261.644 86.0138 258.609 84.7439 255.069 85.0427C253.425 85.1921 251.908 85.6403 250.517 86.3873L219.414 102.075Z" fill="white"/>
</svg>
