<svg width="18" height="18" viewBox="0 0 18 18" fill="none" xmlns="http://www.w3.org/2000/svg">
<rect width="18" height="18" fill="#F5F5F5"/>
<g id="Favicon">
<g clip-path="url(#clip0_9_2)">
<rect id="Rectangle 1" width="18" height="18" fill="black"/>
<g id="shape-07">
<path d="M15.2943 5.26199C15.7317 6.02938 15.7317 6.97062 15.2943 7.73801L14.575 9L13.5062 7.12494C13.286 6.73856 12.8754 6.5 12.4307 6.5V6.5C11.4807 6.5 10.8847 5.47425 11.3551 4.64893L11.725 4H13.1224C14.0205 4 14.8496 4.48174 15.2943 5.26199V5.26199Z" fill="white"/>
<path d="M15.2943 12.738C14.8496 13.5183 14.0205 14 13.1224 14H11.725L12.7955 12.122C13.0152 11.7364 13.0152 11.2636 12.7955 10.878V10.878C12.3182 10.0407 12.9229 9 13.8867 9H14.575L15.2943 10.262C15.7317 11.0294 15.7317 11.9706 15.2943 12.738V12.738Z" fill="white"/>
<path d="M11.725 14L11.3705 13.378C10.8978 12.5487 9.70224 12.5487 9.22953 13.378V13.378C9.01034 13.7626 8.60171 14 8.15907 14H6.025L6.74434 15.262C7.18063 16.0274 7.99396 16.5 8.875 16.5V16.5C9.75604 16.5 10.5694 16.0274 11.0057 15.262L11.725 14Z" fill="white"/>
<path d="M2.45566 12.738C2.01826 11.9706 2.01826 11.0294 2.45566 10.262L3.175 9L4.24378 10.8751C4.46402 11.2614 4.87459 11.5 5.31934 11.5V11.5C6.26931 11.5 6.86532 12.5258 6.39489 13.3511L6.025 14H4.62761C3.7295 14 2.90041 13.5183 2.45566 12.738V12.738Z" fill="white"/>
<path d="M3.175 9H3.86333C4.82713 9 5.43181 7.95932 4.95453 7.12199V7.12199C4.73477 6.73645 4.73477 6.26355 4.95453 5.87801L6.025 4H4.62761C3.7295 4 2.90041 4.48174 2.45566 5.26199V5.26199C2.01826 6.02938 2.01826 6.97062 2.45566 7.73801L3.175 9Z" fill="white"/>
<path d="M6.025 4L6.37953 4.62199C6.85224 5.4513 8.04776 5.4513 8.52047 4.62199V4.62199C8.73966 4.23743 9.14829 4 9.59093 4H11.725L11.0057 2.73801C10.5694 1.97258 9.75604 1.5 8.875 1.5V1.5C7.99396 1.5 7.18063 1.97258 6.74434 2.73801L6.025 4Z" fill="white"/>
</g>
<circle id="Ellipse 1" cx="9" cy="9" r="2" stroke="white"/>
</g>
</g>
<defs>
<clipPath id="clip0_9_2">
<rect width="18" height="18" rx="4.5" fill="white"/>
</clipPath>
</defs>
</svg>
